<svg width="128" height="128" viewBox="0 0 64 64" xmlns="http://www.w3.org/2000/svg">
  <defs>
    <linearGradient id="pmBg" x1="8" y1="6" x2="58" y2="58" gradientUnits="userSpaceOnUse">
      <stop stop-color="#08111f"/>
      <stop offset="1" stop-color="#14243d"/>
    </linearGradient>
    <linearGradient id="pmGlow" x1="12" y1="10" x2="50" y2="52" gradientUnits="userSpaceOnUse">
      <stop stop-color="#5eead4"/>
      <stop offset="1" stop-color="#38bdf8"/>
    </linearGradient>
    <linearGradient id="pmStroke" x1="18" y1="14" x2="46" y2="46" gradientUnits="userSpaceOnUse">
      <stop stop-color="#ccfbf1"/>
      <stop offset="1" stop-color="#e0f2fe"/>
    </linearGradient>
  </defs>
  <rect x="4" y="4" width="56" height="56" rx="18" fill="url(#pmBg)"/>
  <path d="M18 17.5C18 14.462 20.462 12 23.5 12H36c5.523 0 10 4.477 10 10v1.5h-6V22c0-2.209-1.791-4-4-4H24v28h-6z" fill="url(#pmGlow)"/>
  <path d="M29 22h8.5c4.142 0 7.5 3.358 7.5 7.5S41.642 37 37.5 37H35l11 13h-8.5l-9.5-11.5V50h-7V22h8zM28 31h8.5c.828 0 1.5-.672 1.5-1.5S37.328 28 36.5 28H28z" fill="url(#pmStroke)"/>
  <path d="M16 47.5c4.5-1.9 8.167-2.85 11-2.85 4.2 0 7.9 1.317 11.1 3.95" fill="none" stroke="#5eead4" stroke-width="2.5" stroke-linecap="round" opacity=".8"/>
</svg>
